<svg xmlns="http://www.w3.org/2000/svg" viewBox="0 0 32 32">
  <defs>
    <linearGradient id="discordGradient" x1="0%" y1="0%" x2="100%" y2="100%">
      <stop offset="0%" stop-color="#5865F2" />
      <stop offset="100%" stop-color="#404EED" />
    </linearGradient>
  </defs>
  <circle cx="16" cy="16" r="16" fill="url(#discordGradient)"/>
  <path d="M24.5 8.75C24.5 8.75 22.1875 6.96875 19.5 6.75L19.2812 7.1875C21.5625 7.78125 22.6562 8.59375 23.8125 9.625C22.1875 8.78125 20.5625 8.125 16 8.125C11.4375 8.125 9.8125 8.78125 8.1875 9.625C9.34375 8.59375 10.75 7.71875 12.7188 7.1875L12.5 6.75C9.8125 6.96875 7.5 8.75 7.5 8.75C7.5 8.75 4.875 12.4062 4.5 19.5312C6.75 22.2188 10.5 22.25 10.5 22.25L11.25 21.25C10.1562 20.875 8.84375 20.2188 7.75 19C9.125 19.9062 11.1875 21 16 21C20.8125 21 22.875 19.9062 24.25 19C23.1562 20.2188 21.8438 20.875 20.75 21.25L21.5 22.25C21.5 22.25 25.25 22.2188 27.5 19.5312C27.125 12.4062 24.5 8.75 24.5 8.75ZM12.75 17.5C11.7812 17.5 11 16.5938 11 15.5C11 14.4062 11.7812 13.5 12.75 13.5C13.7188 13.5 14.5 14.4062 14.5 15.5C14.5 16.5938 13.7188 17.5 12.75 17.5ZM19.25 17.5C18.2812 17.5 17.5 16.5938 17.5 15.5C17.5 14.4062 18.2812 13.5 19.25 13.5C20.2188 13.5 21 14.4062 21 15.5C21 16.5938 20.2188 17.5 19.25 17.5Z" fill="white"/>
</svg> 